<svg width="64" height="64" viewBox="0 0 64 64" fill="none" xmlns="http://www.w3.org/2000/svg">
<circle cx="32" cy="32" r="32" fill="#FFF5E1"/>
<circle cx="32" cy="32" r="25" fill="#1A1512"/>
<path d="M31.7731 25.1094V16.25H22.662C21.8566 16.25 21.0841 16.5611 20.5145 17.115C19.945 17.6688 19.625 18.4199 19.625 19.2031V44.7969C19.625 45.5801 19.945 46.3312 20.5145 46.885C21.0841 47.4389 21.8566 47.75 22.662 47.75H40.8842C41.6897 47.75 42.4622 47.4389 43.0317 46.885C43.6013 46.3312 43.9213 45.5801 43.9213 44.7969V39.9971L40.5461 43.279C39.716 44.0862 38.6753 44.6571 37.5374 44.9347L34.5044 45.673C33.676 45.876 32.8016 45.803 32.0208 45.4657C31.2401 45.1284 30.5983 44.5463 30.1979 43.8125H24.6867C24.4182 43.8125 24.1607 43.7088 23.9709 43.5242C23.781 43.3396 23.6744 43.0892 23.6744 42.8281C23.6744 42.5671 23.781 42.3167 23.9709 42.1321C24.1607 41.9475 24.4182 41.8438 24.6867 41.8438H29.7565C29.7723 41.6134 29.8089 41.3848 29.8659 41.1606L30.6251 38.2114C30.9095 37.1052 31.4973 36.0947 32.3259 35.2878L39.7585 28.0625H34.8102C34.0047 28.0625 33.2322 27.7514 32.6627 27.1975C32.0931 26.6437 31.7731 25.8926 31.7731 25.1094ZM42.6275 25.3279C42.4446 25.469 42.2702 25.6201 42.1051 25.7807L41.7812 26.0938H34.8102C34.5417 26.0938 34.2842 25.99 34.0943 25.8054C33.9045 25.6208 33.7978 25.3704 33.7978 25.1094V16.7422L42.6275 25.3279ZM33.7573 36.6797L43.5366 27.1707C43.8884 26.8289 44.3059 26.5578 44.7654 26.3729C45.2249 26.188 45.7174 26.093 46.2147 26.0932C46.7119 26.0933 47.2043 26.1888 47.6637 26.374C48.123 26.5592 48.5404 26.8306 48.8919 27.1726C49.2434 27.5147 49.5222 27.9207 49.7123 28.3675C49.9024 28.8143 50.0002 29.2932 50 29.7767C49.9998 30.2603 49.9017 30.739 49.7112 31.1857C49.5207 31.6324 49.2416 32.0382 48.8899 32.38L39.1106 41.8871C38.5407 42.441 37.827 42.8343 37.0454 43.025L34.0124 43.7613C33.7109 43.8344 33.395 43.8304 33.0955 43.7497C32.7959 43.669 32.523 43.5143 32.3031 43.3007C32.0832 43.0871 31.9239 42.8218 31.8406 42.5306C31.7573 42.2395 31.7529 41.9323 31.8278 41.639L32.5871 38.6898C32.7832 37.9298 33.1876 37.2358 33.7573 36.6817" fill="#FFF5E1"/>
</svg>
