<svg width="46" height="46" viewBox="0 0 46 46" fill="none" xmlns="http://www.w3.org/2000/svg">
<circle cx="23" cy="23" r="23" fill="#FFF5E1"/>
<path d="M21.6081 10.3215C22.5103 10.0126 23.4897 10.0126 24.3918 10.3215C25.6573 10.7537 27.9979 11.6001 31.413 13.0224C33.8711 14.047 35.6147 14.8398 36.7889 15.4023C37.5544 15.7687 37.9937 16.4907 37.9937 17.258C37.9937 18.0253 37.5544 18.7473 36.7882 19.1137C35.6147 19.6755 33.8711 20.469 31.413 21.4936C27.9979 22.9158 25.6573 23.7623 24.3918 24.1939C23.4897 24.5027 22.5103 24.5027 21.6081 24.1939C20.3427 23.7623 18.0021 22.9158 14.587 21.4936C13.6629 21.1092 12.7428 20.7153 11.8269 20.3119V30.508C12.465 30.7347 13.0025 31.1795 13.3447 31.7638C13.6869 32.3481 13.8117 33.0345 13.6972 33.7018C13.5827 34.3692 13.2362 34.9747 12.7188 35.4116C12.2015 35.8485 11.5464 36.0887 10.8692 36.0898C10.191 36.0904 9.53449 35.8511 9.0158 35.4143C8.49711 34.9774 8.14969 34.3712 8.03502 33.7029C7.92036 33.0346 8.04584 32.3472 8.38926 31.7625C8.73268 31.1778 9.2719 30.7334 9.91151 30.508V19.445C9.65868 19.3272 9.42542 19.2167 9.21175 19.1137C8.4456 18.7473 8.00633 18.0253 8.00633 17.258C8.00633 16.4907 8.4456 15.7687 9.21175 15.4023C10.3852 14.8398 12.1289 14.047 14.5876 13.0224C18.0021 11.6001 20.3427 10.7537 21.6088 10.3221" fill="#1A1512"/>
<path d="M21.0397 25.8283C18.661 24.9983 16.311 24.0851 13.9937 23.0905V23.2736C13.9937 25.2649 14.0936 26.5401 14.1979 27.3297C14.3214 28.2652 14.8552 29.0871 15.6981 29.5378C16.919 30.1899 19.2801 31.0898 22.9937 31.0898C26.7072 31.0898 29.0683 30.1899 30.2892 29.5371C31.1321 29.0871 31.6665 28.2652 31.7894 27.3297C31.8937 26.5401 31.9937 25.2649 31.9937 23.2736V23.0898C29.6763 24.0845 27.3263 24.9977 24.9476 25.8277C23.681 26.2699 22.3063 26.2705 21.0397 25.8283Z" fill="#1A1512"/>
</svg>
