<svg width="46" height="46" viewBox="0 0 46 46" fill="none" xmlns="http://www.w3.org/2000/svg">
<circle cx="23" cy="23" r="23" fill="#FFF5E1"/>
<path fill-rule="evenodd" clip-rule="evenodd" d="M24.2215 11.3253C23.4272 11.0706 22.5731 11.0706 21.7788 11.3253L13.0668 14.12C12.7542 14.2217 12.4902 14.4354 12.3255 14.72L9.34284 19.872C9.24311 20.0443 9.18325 20.2368 9.16766 20.4354C9.15208 20.6339 9.18116 20.8334 9.25278 21.0192C9.32439 21.205 9.43672 21.3725 9.58152 21.5092C9.72631 21.6459 9.89989 21.7484 10.0895 21.8093L19.6095 24.8653C19.8993 24.9583 20.2122 24.9494 20.4962 24.84C20.7803 24.7306 21.0183 24.5273 21.1708 24.264L21.6668 23.408V26.4973C21.6668 26.7073 21.6172 26.9144 21.522 27.1017C21.4268 27.2889 21.2887 27.451 21.1189 27.5747C20.9492 27.6984 20.7526 27.7803 20.5452 27.8137C20.3378 27.847 20.1255 27.8309 19.9255 27.7666L12.1415 25.2693V29.64C12.1412 30.2048 12.3203 30.7551 12.6529 31.2116C12.9855 31.668 13.4545 32.0071 13.9922 32.18L21.7788 34.676C22.5731 34.9307 23.4272 34.9307 24.2215 34.676L32.0082 32.18C32.5461 32.0074 33.0154 31.6684 33.3482 31.2119C33.6811 30.7554 33.8603 30.2049 33.8602 29.64L33.8575 25.2693L26.0748 27.7666C25.8748 27.8309 25.6623 27.847 25.4548 27.8136C25.2473 27.7802 25.0507 27.6982 24.8809 27.5743C24.7111 27.4504 24.573 27.2882 24.4779 27.1008C24.3828 26.9134 24.3333 26.7061 24.3335 26.496V23.4066L24.8282 24.2626C24.9809 24.5258 25.219 24.7288 25.5031 24.8379C25.7871 24.947 26.0999 24.9558 26.3895 24.8626L35.9108 21.8093C36.1006 21.7485 36.2744 21.6459 36.4193 21.5091C36.5643 21.3723 36.6767 21.2047 36.7483 21.0187C36.82 20.8327 36.849 20.6331 36.8333 20.4344C36.8176 20.2357 36.7575 20.043 36.6575 19.8706L33.6748 14.72C33.5102 14.4354 33.2461 14.2217 32.9335 14.12L24.2215 11.3253ZM28.1588 15.3893L23.0002 17.044L17.8402 15.3893L22.5922 13.864C22.8571 13.779 23.1419 13.779 23.4068 13.864L28.1588 15.3893Z" fill="#1A1512"/>
</svg>
