<svg width="64" height="64" viewBox="0 0 64 64" fill="none" xmlns="http://www.w3.org/2000/svg">
<circle cx="32" cy="32" r="32" fill="#FFF5E1"/>
<path d="M43.25 25.25H18.5C18.2016 25.25 17.9155 25.3685 17.7045 25.5795C17.4935 25.7905 17.375 26.0766 17.375 26.375V33.125C17.3784 35.0403 17.788 36.9331 18.5768 38.6784C19.3655 40.4237 20.5156 41.9819 21.9509 43.25H18.5C18.2016 43.25 17.9155 43.3685 17.7045 43.5795C17.4935 43.7905 17.375 44.0766 17.375 44.375C17.375 44.6734 17.4935 44.9595 17.7045 45.1705C17.9155 45.3815 18.2016 45.5 18.5 45.5H43.25C43.5484 45.5 43.8345 45.3815 44.0455 45.1705C44.2565 44.9595 44.375 44.6734 44.375 44.375C44.375 44.0766 44.2565 43.7905 44.0455 43.5795C43.8345 43.3685 43.5484 43.25 43.25 43.25H39.7991C41.522 41.7229 42.8285 39.7829 43.5959 37.6123C45.0248 37.5243 46.3664 36.8947 47.3473 35.852C48.3281 34.8092 48.8745 33.4316 48.875 32V30.875C48.875 29.3832 48.2824 27.9524 47.2275 26.8975C46.1726 25.8426 44.7418 25.25 43.25 25.25ZM46.625 32C46.6245 32.7278 46.3887 33.436 45.9528 34.0189C45.5169 34.6018 44.9043 35.0282 44.2063 35.2344C44.3176 34.5367 44.374 33.8315 44.375 33.125V27.6941C45.0328 27.9266 45.6024 28.3574 46.0054 28.9271C46.4083 29.4967 46.6248 30.1772 46.625 30.875V32ZM29.75 21.875V17.375C29.75 17.0766 29.8685 16.7905 30.0795 16.5795C30.2905 16.3685 30.5766 16.25 30.875 16.25C31.1734 16.25 31.4595 16.3685 31.6705 16.5795C31.8815 16.7905 32 17.0766 32 17.375V21.875C32 22.1734 31.8815 22.4595 31.6705 22.6705C31.4595 22.8815 31.1734 23 30.875 23C30.5766 23 30.2905 22.8815 30.0795 22.6705C29.8685 22.4595 29.75 22.1734 29.75 21.875ZM34.25 21.875V17.375C34.25 17.0766 34.3685 16.7905 34.5795 16.5795C34.7905 16.3685 35.0766 16.25 35.375 16.25C35.6734 16.25 35.9595 16.3685 36.1705 16.5795C36.3815 16.7905 36.5 17.0766 36.5 17.375V21.875C36.5 22.1734 36.3815 22.4595 36.1705 22.6705C35.9595 22.8815 35.6734 23 35.375 23C35.0766 23 34.7905 22.8815 34.5795 22.6705C34.3685 22.4595 34.25 22.1734 34.25 21.875ZM25.25 21.875V17.375C25.25 17.0766 25.3685 16.7905 25.5795 16.5795C25.7905 16.3685 26.0766 16.25 26.375 16.25C26.6734 16.25 26.9595 16.3685 27.1705 16.5795C27.3815 16.7905 27.5 17.0766 27.5 17.375V21.875C27.5 22.1734 27.3815 22.4595 27.1705 22.6705C26.9595 22.8815 26.6734 23 26.375 23C26.0766 23 25.7905 22.8815 25.5795 22.6705C25.3685 22.4595 25.25 22.1734 25.25 21.875Z" fill="#1A1512"/>
<circle cx="32" cy="32" r="32" fill="#FFF5E1"/>
<circle cx="32" cy="32" r="25" fill="#1A1512"/>
<path d="M42 26H20C19.7348 26 19.4804 26.1054 19.2929 26.2929C19.1054 26.4804 19 26.7348 19 27V33C19.003 34.7025 19.3671 36.385 20.0682 37.9364C20.7694 39.4878 21.7916 40.8728 23.0675 42H20C19.7348 42 19.4804 42.1054 19.2929 42.2929C19.1054 42.4804 19 42.7348 19 43C19 43.2652 19.1054 43.5196 19.2929 43.7071C19.4804 43.8946 19.7348 44 20 44H42C42.2652 44 42.5196 43.8946 42.7071 43.7071C42.8946 43.5196 43 43.2652 43 43C43 42.7348 42.8946 42.4804 42.7071 42.2929C42.5196 42.1054 42.2652 42 42 42H38.9325C40.464 40.6426 41.6253 38.9182 42.3075 36.9888C43.5776 36.9105 44.7701 36.3509 45.642 35.424C46.5139 34.497 46.9995 33.2725 47 32V31C47 29.6739 46.4732 28.4021 45.5355 27.4645C44.5979 26.5268 43.3261 26 42 26ZM45 32C44.9996 32.647 44.79 33.2765 44.4025 33.7946C44.015 34.3127 43.4705 34.6917 42.85 34.875C42.949 34.2549 42.9991 33.628 43 33V28.1725C43.5848 28.3792 44.0911 28.7621 44.4492 29.2685C44.8074 29.7749 44.9998 30.3798 45 31V32ZM30 23V19C30 18.7348 30.1054 18.4804 30.2929 18.2929C30.4804 18.1054 30.7348 18 31 18C31.2652 18 31.5196 18.1054 31.7071 18.2929C31.8946 18.4804 32 18.7348 32 19V23C32 23.2652 31.8946 23.5196 31.7071 23.7071C31.5196 23.8946 31.2652 24 31 24C30.7348 24 30.4804 23.8946 30.2929 23.7071C30.1054 23.5196 30 23.2652 30 23ZM34 23V19C34 18.7348 34.1054 18.4804 34.2929 18.2929C34.4804 18.1054 34.7348 18 35 18C35.2652 18 35.5196 18.1054 35.7071 18.2929C35.8946 18.4804 36 18.7348 36 19V23C36 23.2652 35.8946 23.5196 35.7071 23.7071C35.5196 23.8946 35.2652 24 35 24C34.7348 24 34.4804 23.8946 34.2929 23.7071C34.1054 23.5196 34 23.2652 34 23ZM26 23V19C26 18.7348 26.1054 18.4804 26.2929 18.2929C26.4804 18.1054 26.7348 18 27 18C27.2652 18 27.5196 18.1054 27.7071 18.2929C27.8946 18.4804 28 18.7348 28 19V23C28 23.2652 27.8946 23.5196 27.7071 23.7071C27.5196 23.8946 27.2652 24 27 24C26.7348 24 26.4804 23.8946 26.2929 23.7071C26.1054 23.5196 26 23.2652 26 23Z" fill="#FFF5E1"/>
</svg>
