<svg width="64" height="64" viewBox="0 0 64 64" fill="none" xmlns="http://www.w3.org/2000/svg">
<circle cx="32" cy="32" r="32" fill="#FFF5E1"/>
<circle cx="32" cy="32" r="25" fill="#1A1512"/>
<g clip-path="url(#clip0_1014_3692)">
<path d="M48.995 32.975V34.475C49.0021 34.8259 48.8859 35.1682 48.6666 35.4423C48.4473 35.7164 48.1389 35.9049 47.795 35.975L45.935 36.35C45.5808 37.8428 44.9828 39.2669 44.165 40.565L45.23 42.155C45.4111 42.4382 45.4918 42.7741 45.4591 43.1086C45.4265 43.4432 45.2824 43.7571 45.05 44L42.995 46.055C42.7491 46.2984 42.4265 46.4493 42.0821 46.4821C41.7377 46.5149 41.3925 46.4276 41.105 46.235L39.5 45.155C38.2114 45.9976 36.7922 46.621 35.3 47L35 48.785C34.9299 49.1289 34.7414 49.4373 34.4673 49.6566C34.1932 49.8759 33.8509 49.9921 33.5 49.985H30.5C30.1491 49.9921 29.8068 49.8759 29.5327 49.6566C29.2586 49.4373 29.0701 49.1289 29 48.785L28.7 47C27.2078 46.621 25.7886 45.9976 24.5 45.155L22.91 46.22C22.6225 46.4126 22.2773 46.4999 21.9329 46.4671C21.5885 46.4343 21.2659 46.2834 21.02 46.04L18.95 44C18.7066 43.7541 18.5557 43.4315 18.5229 43.0871C18.4901 42.7427 18.5774 42.3975 18.77 42.11L19.835 40.52C19.0172 39.2219 18.4192 37.7978 18.065 36.305L16.205 35.93C15.8611 35.8599 15.5527 35.6714 15.3334 35.3973C15.1141 35.1232 14.9979 34.7809 15.005 34.43V32.93H24.845C24.845 34.8276 25.5988 36.6475 26.9407 37.9893C28.2825 39.3312 30.1024 40.085 32 40.085C33.8976 40.085 35.7175 39.3312 37.0593 37.9893C38.4012 36.6475 39.155 34.8276 39.155 32.93L48.995 32.975ZM39.755 19.715C39.755 20.638 40.1216 21.5231 40.7743 22.1757C41.4269 22.8284 42.312 23.195 43.235 23.195C44.158 23.195 45.0431 22.8284 45.6957 22.1757C46.3484 21.5231 46.715 20.638 46.715 19.715C46.715 18.792 46.3484 17.9069 45.6957 17.2543C45.0431 16.6016 44.158 16.235 43.235 16.235C42.312 16.235 41.4269 16.6016 40.7743 17.2543C40.1216 17.9069 39.755 18.792 39.755 19.715ZM17.3 19.715C17.3 20.638 17.6666 21.5231 18.3193 22.1757C18.9719 22.8284 19.857 23.195 20.78 23.195C21.703 23.195 22.5881 22.8284 23.2407 22.1757C23.8934 21.5231 24.26 20.638 24.26 19.715C24.26 18.792 23.8934 17.9069 23.2407 17.2543C22.5881 16.6016 21.703 16.235 20.78 16.235C19.857 16.235 18.9719 16.6016 18.3193 17.2543C17.6666 17.9069 17.3 18.792 17.3 19.715ZM24.2 27.2C23.6618 26.8577 23.0821 26.5856 22.475 26.39C20.8668 25.9381 19.1529 26.0451 17.6135 26.6936C16.074 27.342 14.8001 28.4936 14 29.96H22.595C23.0395 28.9903 23.577 28.066 24.2 27.2ZM41.27 30.005H50C49.204 28.53 47.9296 27.37 46.3865 26.7157C44.8434 26.0614 43.1236 25.9518 41.51 26.405C40.8918 26.6029 40.3018 26.8802 39.755 27.23C40.3439 28.1067 40.851 29.0356 41.27 30.005ZM39.605 30.005C39.0061 28.4499 37.9688 27.1019 36.6188 26.1248C35.2689 25.1476 33.6644 24.5832 32 24.5C30.3218 24.5739 28.7016 25.1354 27.3376 26.1158C25.9736 27.0962 24.925 28.4529 24.32 30.02L39.605 30.005ZM27.485 18.365C27.485 19.5227 27.9449 20.6329 28.7635 21.4515C29.5821 22.2701 30.6923 22.73 31.85 22.73C33.0077 22.73 34.1179 22.2701 34.9365 21.4515C35.7551 20.6329 36.215 19.5227 36.215 18.365C36.215 17.2073 35.7551 16.0971 34.9365 15.2785C34.1179 14.4599 33.0077 14 31.85 14C30.6923 14 29.5821 14.4599 28.7635 15.2785C27.9449 16.0971 27.485 17.2073 27.485 18.365Z" fill="#FFF5E1"/>
</g>
<defs>
<clipPath id="clip0_1014_3692">
<rect width="36" height="36" fill="white" transform="translate(14 14)"/>
</clipPath>
</defs>
</svg>
