<svg width="64" height="64" viewBox="0 0 64 64" fill="none" xmlns="http://www.w3.org/2000/svg">
<circle cx="32" cy="32" r="32" fill="#FFF5E1"/>
<circle cx="32" cy="32" r="25" fill="#1A1512"/>
<g clip-path="url(#clip0_1014_3698)">
<path d="M32.0072 14.9072H31.8722L31.8302 14.9087H31.7342L31.6892 14.9102L31.5842 14.9117L31.5542 14.9132L31.4192 14.9177H31.3862L31.2812 14.9222L31.2362 14.9237L31.1417 14.9282L31.0997 14.9297L30.9647 14.9372L30.8297 14.9462H30.8072L30.7922 14.9477L30.6962 14.9552L30.6512 14.9582L30.5462 14.9657L30.5162 14.9687L30.3842 14.9807L30.3542 14.9822L30.2492 14.9927L30.2087 14.9972L30.1112 15.0062L30.0737 15.0107L29.9417 15.0257L29.8067 15.0407L29.7722 15.0452L29.6732 15.0572L29.6612 15.0602L29.6387 15.0632H29.6342L29.5247 15.0782L29.5022 15.0812L29.4272 15.0917L29.3672 15.1007L29.3462 15.1037L29.2367 15.1187L29.2007 15.1262L29.0957 15.1412L29.0657 15.1472L28.9337 15.1697L28.8812 15.1787L28.8542 15.1847L28.8017 15.1937L28.7717 15.1982L28.6667 15.2177L28.6367 15.2237L28.5167 15.2462H28.5122L28.5062 15.2477L28.4987 15.2492L28.3682 15.2762L28.3577 15.2792H28.3547L28.3037 15.2912L28.2392 15.3062L28.2122 15.3092L28.0997 15.3347L28.0802 15.3392L27.9452 15.3692L27.8102 15.3992L27.7952 15.4037L27.6752 15.4337L27.6587 15.4382L27.5282 15.4712L27.3902 15.5072L27.2582 15.5432L27.2432 15.5462L27.1172 15.5822H27.1127L26.9777 15.6212L26.8412 15.6617L26.7302 15.6962L26.7152 15.7007L26.7077 15.7037H26.7032L26.6612 15.7187L26.3762 15.8117L26.2562 15.8492L25.8707 15.9857L25.7582 16.0262C25.6045 16.0831 25.4519 16.1431 25.3007 16.2062C25.2707 16.2162 25.2402 16.2277 25.2092 16.2407L24.9932 16.3307C24.7255 16.4448 24.4604 16.5648 24.1982 16.6907L24.0932 16.7417L23.9732 16.8017C23.7172 16.9297 23.4642 17.0632 23.2142 17.2022C22.9832 17.4722 22.7582 17.7462 22.5392 18.0242L22.4492 18.1442L22.3952 18.2087L22.4027 18.2042L22.2377 18.4232C22.1207 18.5772 22.0052 18.7322 21.8912 18.8882C21.8062 19.0082 21.7227 19.1297 21.6407 19.2527C21.5177 19.4277 21.3977 19.6052 21.2807 19.7852L21.0437 20.1602C20.9327 20.3402 20.8187 20.5202 20.7137 20.7032C20.6377 20.8312 20.5637 20.9602 20.4917 21.0902C20.3867 21.2792 20.2802 21.4652 20.1767 21.6602L19.9787 22.0502C19.8827 22.2385 19.7892 22.428 19.6982 22.6187C19.6312 22.7627 19.5652 22.9077 19.5002 23.0537C19.2647 23.5773 19.048 24.1091 18.8507 24.6482L18.7757 24.8402L18.7892 24.8222C18.5972 25.3562 18.4232 25.8982 18.2672 26.4482L18.1067 26.5217L18.0842 26.5307C17.7946 26.6662 17.5141 26.82 17.2442 26.9912L17.1917 27.0242C16.934 27.1938 16.687 27.3792 16.4522 27.5792L16.3847 27.6362C16.1585 27.8366 15.9446 28.0505 15.7442 28.2767L15.6782 28.3517C15.4804 28.5843 15.2971 28.8288 15.1292 29.0837L15.0917 29.1437C14.9234 29.4104 14.7721 29.6875 14.6387 29.9732L14.6237 30.0092C14.4907 30.3046 14.3769 30.6082 14.2832 30.9182L14.2787 30.9377C14.1877 31.2487 14.1177 31.5687 14.0687 31.8977V31.9127C13.9758 32.5685 13.9758 33.234 14.0687 33.8897V33.9047C14.1177 34.2327 14.1877 34.5527 14.2787 34.8647L14.2847 34.8857C14.3767 35.1977 14.4897 35.5002 14.6237 35.7932L14.6387 35.8292C14.7727 36.1172 14.9242 36.3942 15.0932 36.6602L15.1292 36.7172C15.2972 36.9762 15.4812 37.2212 15.6812 37.4522L15.7427 37.5257C15.9427 37.7517 16.1557 37.9647 16.3817 38.1647L16.4537 38.2247C16.6857 38.4247 16.9307 38.6082 17.1887 38.7752L17.2487 38.8157C17.5157 38.9857 17.7942 39.1377 18.0842 39.2717L18.1067 39.2807C18.4017 39.4157 18.7067 39.5297 19.0217 39.6227L19.0472 39.6302C19.3582 39.7202 19.6767 39.7892 20.0027 39.8372L20.0207 39.8402C20.6749 39.9327 21.3389 39.9327 21.9932 39.8402L22.0112 39.8372C22.3382 39.7902 22.6567 39.7212 22.9667 39.6302L22.9922 39.6227C23.3037 39.5292 23.6089 39.4154 23.9057 39.2822L23.9312 39.2702C24.2202 39.1362 24.4977 38.9847 24.7637 38.8157L24.8267 38.7752C25.0827 38.6082 25.3277 38.4252 25.5617 38.2262L25.6292 38.1662C25.8572 37.9662 26.0717 37.7512 26.2727 37.5212L26.3312 37.4552C26.5312 37.2212 26.7162 36.9747 26.8862 36.7157L26.9162 36.6632C27.0867 36.3947 27.24 36.1157 27.3752 35.8277L27.3902 35.7962C27.5242 35.5012 27.6377 35.1962 27.7307 34.8812L27.7337 34.8692C27.8247 34.5572 27.8947 34.2372 27.9437 33.9092V33.8792C28.005 33.4416 28.0251 32.9991 28.0037 32.5577V32.5547C28.0027 32.4807 27.9977 32.4072 27.9887 32.3342L27.9797 32.2067C27.9688 32.0954 27.9548 31.9843 27.9377 31.8737V31.8662C27.8545 31.3004 27.7013 30.7472 27.4817 30.2192C27.4367 30.1142 27.3897 30.0077 27.3407 29.9027L27.3377 29.8982L27.2132 29.6507L27.1832 29.5907L27.0782 29.4062L27.0032 29.2787L26.9477 29.1887L26.8172 28.9832L26.7992 28.9592C26.2491 28.1528 25.5376 27.4694 24.7097 26.9522L24.6302 26.9027L24.4862 26.8202C24.4332 26.7882 24.3782 26.7567 24.3212 26.7257L24.2552 26.6927C23.6121 26.3541 22.9196 26.1192 22.2032 25.9967C23.2723 23.0242 25.0124 20.3381 27.2882 18.1472C28.8138 17.6574 30.4063 17.408 32.0087 17.4077C40.5587 17.4077 47.5022 24.3512 47.5037 32.9012V32.9042C47.5037 36.0992 46.5332 39.0692 44.8742 41.5382L44.8547 41.5652C41.7497 46.1897 36.0227 49.3547 28.2542 48.5297L28.2842 48.5537C36.0842 50.2607 42.3467 47.7362 46.1072 43.3637L46.0802 43.4027C46.2382 43.2201 46.3923 43.0341 46.5422 42.8447L46.6232 42.7382C46.7642 42.5552 46.9017 42.3702 47.0357 42.1832L47.1857 41.9642C47.4564 41.5675 47.7096 41.1591 47.9447 40.7402L48.0587 40.5407C48.3187 40.0607 48.5532 39.5702 48.7622 39.0692L48.8552 38.8322C49.0316 38.3888 49.1888 37.9378 49.3262 37.4807C49.3512 37.4007 49.3747 37.3222 49.3967 37.2452C49.4718 36.9836 49.5399 36.72 49.6007 36.4547L49.6052 36.4277C49.6622 36.1717 49.7137 35.9137 49.7597 35.6537L49.7972 35.4137C49.8718 34.9413 49.9258 34.4658 49.9592 33.9887C49.9672 33.8987 49.9732 33.8102 49.9772 33.7232C49.9912 33.4512 49.9987 33.1787 49.9997 32.9057C50.0012 22.9727 41.9387 14.9072 32.0072 14.9072ZM32.3552 19.8227C34.3997 21.8822 35.5577 24.6302 35.9702 27.6662C36.1262 28.8137 35.9012 30.0812 34.8152 30.8612C34.7282 31.3607 34.9877 31.9052 35.2157 32.4437C35.7977 33.8237 36.6857 35.0792 37.3277 36.4067C37.9037 37.6037 36.3797 38.4887 35.2667 38.8517C35.1302 38.897 34.9927 38.939 34.8542 38.9777C34.9262 39.5522 35.2652 39.9827 35.1767 40.4822C35.1089 40.8411 34.91 41.162 34.6187 41.3822C34.6187 41.3822 35.0387 42.6992 34.0487 43.2722C33.8207 43.4027 33.5537 43.4282 33.5027 43.7822C33.4067 44.4842 33.3017 45.1712 32.7467 45.7427C32.6627 45.8277 32.5742 45.9072 32.4812 45.9812C38.9702 45.7532 44.4362 40.7207 45.0392 34.0862C45.6917 26.8952 40.3832 20.5262 33.1892 19.8722C32.9118 19.8466 32.6336 19.8311 32.3552 19.8227ZM29.3957 20.0777C28.3569 20.2904 27.348 20.6289 26.3912 21.0857C26.9732 21.2867 27.4952 21.5597 27.8462 21.8867C29.4812 23.4017 30.2897 24.8912 30.7412 26.9612C31.1417 28.7882 31.3337 29.6747 30.3737 30.3407C29.0762 31.2407 31.7582 35.0867 32.2817 36.1997C31.5917 37.0877 30.6887 37.0682 30.2117 37.3142C29.9477 37.4492 30.0572 37.9532 30.1007 38.3417C30.1427 38.7227 30.4907 38.9612 30.3002 39.2567C30.1292 39.5192 29.4752 39.5387 29.1947 39.7217C29.4677 40.0217 30.0722 40.3202 29.9897 40.7087C29.9297 41.0087 29.2517 40.9577 28.9907 41.6417C28.8512 42.0092 28.9232 42.6887 28.6337 43.0322C27.9617 43.8272 27.2582 43.9622 25.8587 43.8077C25.4029 43.7572 24.9488 43.6937 24.4967 43.6172C25.5378 44.3501 26.6817 44.9249 27.8912 45.3227C28.2662 45.4457 28.6667 45.4877 29.0612 45.4457C29.7992 45.3767 30.3122 45.1067 30.8102 44.5157C31.1402 44.1257 31.0577 43.3517 31.2152 42.9347C31.5137 42.1547 32.2847 42.2177 32.3552 41.8757C32.4452 41.4317 31.7582 41.0912 31.4492 40.7507C31.7702 40.5437 32.5097 40.5212 32.7062 40.2212C32.9237 39.8867 32.5262 39.6152 32.4782 39.1817C32.4302 38.7407 32.3057 38.1677 32.6057 38.0117C33.1457 37.7327 34.1732 37.7537 34.9592 36.7457C34.3637 35.4797 31.3142 31.1057 32.7887 30.0827C33.8807 29.3237 33.6632 28.3172 33.2087 26.2382C32.6927 23.8832 31.7732 22.1912 29.9162 20.4677C29.7559 20.3209 29.5816 20.1903 29.3957 20.0777Z" fill="#FFF5E1"/>
</g>
<defs>
<clipPath id="clip0_1014_3698">
<rect width="36" height="36" fill="white" transform="translate(14 14)"/>
</clipPath>
</defs>
</svg>
