<svg width="64" height="64" viewBox="0 0 64 64" fill="none" xmlns="http://www.w3.org/2000/svg">
<circle cx="32" cy="32" r="32" fill="#FFF5E1"/>
<circle cx="32" cy="32" r="25" fill="#1A1512"/>
<path fill-rule="evenodd" clip-rule="evenodd" d="M42.9759 17.5403C43.1854 17.2982 43.463 17.1264 43.7716 17.0479C44.0802 16.9694 44.4051 16.988 44.703 17.1011C45.0009 17.2142 45.2575 17.4166 45.4387 17.6811C45.6199 17.9456 45.717 18.2597 45.717 18.5814V22.8378H45.8774C46.1751 22.8378 46.4607 22.9574 46.6712 23.1703C46.8817 23.3832 47 23.6719 47 23.973C47 24.274 46.8817 24.5628 46.6712 24.7756C46.4607 24.9885 46.1751 25.1081 45.8774 25.1081H45.717V25.9189C45.717 26.22 45.5987 26.5087 45.3882 26.7216C45.1777 26.9345 44.8921 27.0541 44.5944 27.0541C44.2967 27.0541 44.0111 26.9345 43.8006 26.7216C43.5901 26.5087 43.4718 26.22 43.4718 25.9189V25.1081H39.9288C39.6236 25.1081 39.3248 25.0191 39.0682 24.852C38.8117 24.6848 38.6081 24.4464 38.482 24.1653C38.3559 23.8842 38.3125 23.5724 38.357 23.267C38.4015 22.9617 38.5321 22.6758 38.7331 22.4435L42.9759 17.5403ZM43.4718 22.8378V20.4151L41.3754 22.8378H43.4718ZM24.3772 17.8108C20.3037 17.8108 17 21.1507 17 25.2703V26.1343C17 26.1836 17.0036 26.232 17.0109 26.2796C17.3689 37.7846 26.7045 47 38.1692 47H38.49C42.5647 47 45.8671 43.6601 45.8671 39.5405V39.1715C45.8671 38.5882 45.6943 38.0182 45.371 37.5352C45.0476 37.0521 44.5886 36.6781 44.053 36.4614L40.0976 34.8618C39.4565 34.6026 38.7544 34.5392 38.0781 34.6795C37.4018 34.8198 36.7811 35.1577 36.2929 35.6512L34.319 37.6471C34.2318 37.7354 34.1336 37.7457 34.0739 37.7276C32.2102 37.1518 30.5148 36.1219 29.1367 34.7285C27.7587 33.3351 26.7402 31.6208 26.1708 29.7362C26.1522 29.6752 26.1631 29.576 26.2497 29.4878L28.2235 27.4925C28.7119 26.9989 29.0462 26.3711 29.1851 25.6872C29.324 25.0032 29.2613 24.2931 29.0049 23.6448L27.4217 19.6458C27.2075 19.1043 26.8377 18.64 26.3601 18.3129C25.8825 17.9859 25.319 17.811 24.7422 17.8108H24.3772ZM33.689 17C33.0587 16.9998 32.4438 17.1973 31.9291 17.5652C31.4144 17.9331 31.0252 18.4533 30.8152 19.0543C30.7181 19.3376 30.7358 19.6483 30.8644 19.9185C30.9931 20.1887 31.2223 20.3964 31.5019 20.4963C31.7815 20.5962 32.0889 20.5801 32.3568 20.4517C32.6248 20.3232 32.8316 20.0927 32.9321 19.8106C32.9875 19.6524 33.09 19.5155 33.2256 19.4187C33.3612 19.3219 33.5231 19.2701 33.689 19.2703H35.0221C35.1948 19.2701 35.3623 19.3302 35.4965 19.4403C35.6306 19.5504 35.7231 19.7038 35.7585 19.8748C35.7939 20.0458 35.77 20.2238 35.6907 20.3791C35.6115 20.5343 35.4819 20.6572 35.3236 20.7271L32.4676 21.9907C31.925 22.2308 31.4633 22.6256 31.139 23.1268C30.8148 23.6281 30.6421 24.214 30.642 24.813V25.9189C30.642 26.5455 31.1449 27.0541 31.7646 27.0541H36.8965C37.1942 27.0541 37.4798 26.9345 37.6903 26.7216C37.9008 26.5087 38.0191 26.22 38.0191 25.9189C38.0191 25.6179 37.9008 25.3291 37.6903 25.1163C37.4798 24.9034 37.1942 24.7838 36.8965 24.7838H32.8872C32.8927 24.6312 32.9407 24.4832 33.0257 24.357C33.1107 24.2308 33.2292 24.1314 33.3677 24.0703L36.2236 22.8074C36.8545 22.5285 37.3712 22.0386 37.6869 21.4199C38.0025 20.8011 38.0979 20.0914 37.9569 19.4099C37.8159 18.7285 37.4472 18.1169 36.9127 17.678C36.3782 17.2391 35.7106 16.9997 35.0221 17H33.689Z" fill="#FFF5E1"/>
</svg>
