<svg width="46" height="46" viewBox="0 0 46 46" fill="none" xmlns="http://www.w3.org/2000/svg">
<circle cx="23" cy="23" r="23" fill="#FFF5E1"/>
<path d="M14.25 10H29.2C30.062 10 30.8886 10.3386 31.4981 10.9414C32.1076 11.5442 32.45 12.3618 32.45 13.2143V21.9739C30.9686 21.4992 29.3835 21.4386 27.8695 21.7987C26.3555 22.1588 24.9715 22.9257 23.8704 24.0147C22.7694 25.1037 21.9939 26.4724 21.6298 27.9698C21.2656 29.4672 21.3269 31.0349 21.8069 32.5H12.95C12.95 32.841 13.087 33.168 13.3308 33.4091C13.5746 33.6503 13.9052 33.7857 14.25 33.7857H22.3516C22.7235 34.4913 23.1954 35.1407 23.753 35.7143H14.25C13.388 35.7143 12.5614 35.3756 11.9519 34.7728C11.3424 34.17 11 33.3525 11 32.5V13.2143C11 12.3618 11.3424 11.5442 11.9519 10.9414C12.5614 10.3386 13.388 10 14.25 10ZM16.2 13.8571C15.8552 13.8571 15.5246 13.9926 15.2808 14.2337C15.037 14.4748 14.9 14.8019 14.9 15.1429V16.4286C14.9 16.7696 15.037 17.0966 15.2808 17.3377C15.5246 17.5788 15.8552 17.7143 16.2 17.7143H26.6C26.9448 17.7143 27.2754 17.5788 27.5192 17.3377C27.763 17.0966 27.9 16.7696 27.9 16.4286V15.1429C27.9 14.8019 27.763 14.4748 27.5192 14.2337C27.2754 13.9926 26.9448 13.8571 26.6 13.8571H16.2ZM37 29.9286C37 28.0531 36.2467 26.2545 34.9058 24.9283C33.5649 23.6022 31.7463 22.8571 29.85 22.8571C27.9537 22.8571 26.1351 23.6022 24.7942 24.9283C23.4533 26.2545 22.7 28.0531 22.7 29.9286C22.7 31.804 23.4533 33.6027 24.7942 34.9288C26.1351 36.255 27.9537 37 29.85 37C31.7463 37 33.5649 36.255 34.9058 34.9288C36.2467 33.6027 37 31.804 37 29.9286ZM29.0882 26.839L32.736 29.2047C32.8495 29.2767 32.9384 29.3723 33.0025 29.4914C33.0675 29.608 33.1 29.7357 33.1 29.8746C33.1001 30.0078 33.068 30.1392 33.0064 30.2577C32.9469 30.3746 32.8583 30.4746 32.749 30.5483L29.0999 33.0104C29.0367 33.0532 28.9675 33.0866 28.8945 33.1094C28.7255 33.1629 28.5425 33.1524 28.381 33.0799C28.2881 33.0364 28.2032 32.9777 28.1301 32.9063C28.0593 32.8308 28.0021 32.7438 27.9611 32.6491C27.9201 32.5527 27.8993 32.449 27.9 32.3444V27.5127C27.899 27.3579 27.9436 27.2062 28.0283 27.0761C28.113 26.9459 28.2342 26.843 28.3771 26.7799C28.4904 26.7271 28.6157 26.7046 28.7405 26.7148C28.8653 26.7249 28.9852 26.7673 29.0882 26.8377" fill="#1A1512"/>
</svg>
