<svg width="64" height="64" viewBox="0 0 64 64" fill="none" xmlns="http://www.w3.org/2000/svg">
<circle cx="32" cy="32" r="32" fill="#FFF5E1"/>
<circle cx="32" cy="32" r="25" fill="#1A1512"/>
<path d="M43.06 19.6651C43.9882 18.7245 30.0659 17.784 23.5689 24.3677C19.8563 28.1299 18 33.7731 18 36.5947C18 40.3568 19.8563 46 23.5689 46C36.563 46 41.2037 35.6541 43.06 31.892C44.9163 28.1299 45.8445 20.6056 43.9882 20.6056C43.06 20.6056 38.4193 23.4272 36.563 25.3083C34.7067 27.1893 34.7067 30.9515 32.8504 32.8325C30.9941 34.7136 28.2096 34.7136 26.3533 36.5947L21.7126 41.2973C21.7126 41.2973 22.6407 36.5947 24.497 34.7136C26.3533 32.8325 28.2096 32.8325 30.0659 30.9515C31.9222 29.0704 32.8504 25.3083 34.7067 23.4272C36.563 21.5461 42.1319 20.6056 43.06 19.6651Z" fill="#FFF5E1"/>
</svg>
