<svg width="64" height="64" viewBox="0 0 64 64" fill="none" xmlns="http://www.w3.org/2000/svg">
<circle cx="32" cy="32" r="32" fill="#FFF5E1"/>
<circle cx="32" cy="32" r="25" fill="#1A1512"/>
<path d="M47.3612 33.9914H31.8312C30.9991 33.9249 30.1751 34.2011 29.5377 34.7604C28.9003 35.3196 28.5008 36.1168 28.4256 36.9795L28.4243 36.9916C28.4617 37.4245 28.581 37.8455 28.7754 38.2306C28.9697 38.6156 29.2352 38.9572 29.5567 39.2357C29.8783 39.5142 30.2496 39.7242 30.6494 39.8537C31.0492 39.9832 31.4696 40.0296 31.8867 39.9904L31.8751 39.9917H47.3612C47.4587 40.0011 47.557 39.9902 47.6503 39.9596C47.7437 39.929 47.8302 39.8794 47.9048 39.8136C47.9795 39.7479 48.0407 39.6674 48.085 39.5767C48.1292 39.4861 48.1556 39.3872 48.1626 39.2859V34.7C48.1373 34.504 48.0444 34.3241 47.901 34.1938C47.7577 34.0635 47.5737 33.9916 47.3831 33.9914H47.3599H47.3612ZM31.8312 38.864C31.4662 38.864 31.1094 38.7517 30.806 38.5412C30.5025 38.3308 30.2659 38.0316 30.1263 37.6817C29.9866 37.3317 29.9501 36.9466 30.0213 36.5751C30.0925 36.2036 30.2682 35.8623 30.5263 35.5944C30.7844 35.3266 31.1132 35.1442 31.4712 35.0703C31.8292 34.9964 32.2002 35.0343 32.5374 35.1792C32.8746 35.3242 33.1629 35.5697 33.3656 35.8847C33.5684 36.1996 33.6767 36.5699 33.6767 36.9487V36.9541C33.6767 38.0095 32.852 38.864 31.8364 38.864H31.8312ZM21.1626 16.0039V24.5811H22.928V20.9167C23.1061 20.9622 23.3126 20.9917 23.5242 20.9997H23.5294C24.1674 20.9983 24.7789 20.7347 25.2302 20.2666C25.6815 19.7985 25.9358 19.164 25.9375 18.5018C25.9344 18.2843 25.9058 18.0679 25.8523 17.8576L25.8562 17.8777H35.5247C35.4779 18.0806 35.4511 18.2879 35.4446 18.4964V18.5018C35.446 19.164 35.7 19.7986 36.151 20.267C36.602 20.7353 37.2134 20.9993 37.8514 21.001C38.0682 20.993 38.276 20.9635 38.4748 20.9126L38.4541 20.9167V24.5811H40.2621V16.0039H21.1626ZM41.0222 23.5391H43.269C43.1002 23.032 42.8051 22.5802 42.4137 22.2297C42.0223 21.8792 41.5484 21.6424 41.0403 21.5435L41.0222 21.5408V23.5391Z" fill="#FFF5E1"/>
<path d="M31.3534 33.2121H47.1626V28.4605C47.0949 27.7556 46.7493 27.1052 46.2001 26.6494C45.6509 26.1937 44.9422 25.969 44.2267 26.0239H44.2359H19.1277C19.1061 26.0012 19.0769 25.9868 19.0455 25.9834C18.8711 25.9032 18.7218 25.7781 18.6132 25.6213C18.5046 25.4646 18.4408 25.2819 18.4284 25.0924V25.0898C18.4502 24.855 18.5439 24.6324 18.6969 24.4513C18.8499 24.2702 19.0551 24.1393 19.2852 24.076L19.2932 24.0747V22.0039C17.5624 22.0849 16.1626 24.5215 16.1626 27.5681V45.5608C16.2309 46.2648 16.5764 46.9143 17.1249 47.3696C17.6734 47.825 18.3811 48.0499 19.0959 47.9961H19.0866H44.1949C44.9066 48.0479 45.6107 47.8231 46.1567 47.3698C46.7028 46.9165 47.0476 46.2706 47.1176 45.57L47.1189 45.5595V40.8079H31.3971C28.8452 40.8079 26.7859 39.1016 26.7859 37.0309C26.7859 34.9196 28.8439 33.2134 31.3547 33.2134L31.3534 33.2121Z" fill="#FFF5E1"/>
</svg>
