<svg width="46" height="46" viewBox="0 0 46 46" fill="none" xmlns="http://www.w3.org/2000/svg">
<circle cx="23" cy="23" r="23" fill="#FFF5E1"/>
<path d="M23.6667 9C21.3067 9 19.2267 10.56 18.56 12.8267C17.8533 12.5067 17.1067 12.3333 16.3333 12.3333C14.9188 12.3333 13.5623 12.8952 12.5621 13.8954C11.5619 14.8956 11 16.2522 11 17.6667C11.0032 18.8478 11.3973 19.9946 12.121 20.9281C12.8446 21.8616 13.857 22.5292 15 22.8267V32.3333H32.3333V22.8267C34.68 22.2133 36.3333 20.0933 36.3333 17.6667C36.3333 16.2522 35.7714 14.8956 34.7712 13.8954C33.771 12.8952 32.4145 12.3333 31 12.3333C30.2267 12.3333 29.48 12.5067 28.7733 12.8267C28.1067 10.56 26.0267 9 23.6667 9ZM23 21H24.3333V30.3333H23V21ZM19 23.6667H20.3333V30.3333H19V23.6667ZM27 23.6667H28.3333V30.3333H27V23.6667ZM15 33.6667V35C15 35.3536 15.1405 35.6928 15.3905 35.9428C15.6406 36.1929 15.9797 36.3333 16.3333 36.3333H31C31.3536 36.3333 31.6928 36.1929 31.9428 35.9428C32.1929 35.6928 32.3333 35.3536 32.3333 35V33.6667H15Z" fill="#1A1512"/>
</svg>
