<svg width="46" height="46" viewBox="0 0 46 46" fill="none" xmlns="http://www.w3.org/2000/svg">
<circle cx="23" cy="23" r="23" fill="#FFF5E1"/>
<path d="M18.591 34.9435C18.7398 35.1555 18.7041 35.4509 18.481 35.5826C16.8544 36.543 14.3496 35.7634 12.7114 34.0903C10.5869 31.9207 9.68815 27.9972 10.0957 24.2696C10.1438 23.8295 10.6971 23.7046 10.9515 24.0668L18.591 34.9435ZM19.8074 34.3554C20.1351 34.1113 20.1746 33.55 19.8217 33.344C18.3216 32.4685 15.9576 30.239 17.0884 25.0049C17.1348 24.7901 17.0431 24.5634 16.8513 24.456C15.0198 23.4302 12.7521 22.5894 11.4874 22.0964C11.1415 21.9616 10.5091 22.2038 10.4628 22.5722C10.4493 22.6798 10.4561 22.9332 10.521 23.0201L18.8806 34.2217C19.0965 34.5109 19.518 34.5709 19.8074 34.3554ZM17.889 29.7274C18.6559 31.9938 19.9372 32.5175 21.0131 33.0407C21.2669 33.164 21.5793 33.0695 21.7096 32.8193L33.1004 10.9477C33.1113 10.9268 33.1329 10.9137 33.1565 10.9137C33.2028 10.9137 33.2334 10.9618 33.2138 11.0037L22.605 33.6728C22.5093 33.8773 22.5615 34.1216 22.7388 34.2615C23.8005 35.0997 25.194 35.8415 27.1978 35.4362C36.1041 34.0083 38.247 21.2946 33.6477 10.5218C33.5292 10.2443 33.1909 10.1405 32.9332 10.2973C27.4187 13.654 23.2734 15.5616 20.5422 19.2073C18.356 22.1256 16.66 26.2353 17.889 29.7274Z" fill="#1A1512"/>
</svg>
