<svg width="46" height="46" viewBox="0 0 46 46" fill="none" xmlns="http://www.w3.org/2000/svg">
<circle cx="23" cy="23" r="23" fill="#FFF5E1"/>
<path d="M11 27.2728H13.78C13.8368 27.2741 13.8915 27.2963 13.9351 27.336C13.9787 27.3756 14.0087 27.4303 14.02 27.491C14.0661 27.7374 14.1888 27.9589 14.3674 28.1179C14.546 28.2769 14.7695 28.3637 15 28.3637H15.25C15.3163 28.3637 15.3799 28.3924 15.4268 28.4436C15.4737 28.4947 15.5 28.5641 15.5 28.6364V28.9091C15.5 29.1984 15.6054 29.4759 15.7929 29.6805C15.9804 29.8851 16.2348 30 16.5 30C16.7652 30 17.0196 29.8851 17.2071 29.6805C17.3946 29.4759 17.5 29.1984 17.5 28.9091V28.6364C17.5 28.5641 17.5263 28.4947 17.5732 28.4436C17.6201 28.3924 17.6837 28.3637 17.75 28.3637H18C18.2652 28.3637 18.5196 28.2488 18.7071 28.0442C18.8946 27.8396 19 27.5621 19 27.2728V25.0911C19 24.8018 18.8946 24.5243 18.7071 24.3197C18.5196 24.1152 18.2652 24.0002 18 24.0002H15C14.7661 23.9951 14.5379 24.0796 14.3551 24.239C14.1724 24.3985 14.0468 24.6228 14 24.8729C13.9887 24.9336 13.9587 24.9883 13.9151 25.0279C13.8715 25.0676 13.8168 25.0899 13.76 25.0911H11C10.7348 25.0911 10.4804 25.206 10.2929 25.4106C10.1054 25.6152 10 25.8926 10 26.182C10 26.4713 10.1054 26.7487 10.2929 26.9533C10.4804 27.1579 10.7348 27.2728 11 27.2728Z" fill="#1A1512"/>
<path d="M33.8333 10H17.0417C16.0361 10 15.0716 10.3995 14.3606 11.1106C13.6495 11.8216 13.25 12.7861 13.25 13.7917V19.75C13.25 20.0373 13.3641 20.3129 13.5673 20.516C13.7705 20.7192 14.046 20.8333 14.3333 20.8333H15.1458C15.2177 20.8333 15.2866 20.8619 15.3373 20.9127C15.3881 20.9634 15.4167 21.0323 15.4167 21.1042V22.4583C15.4167 22.602 15.4737 22.7398 15.5753 22.8414C15.6769 22.9429 15.8147 23 15.9583 23H18.125C18.2687 23 18.4064 22.9429 18.508 22.8414C18.6096 22.7398 18.6667 22.602 18.6667 22.4583V21.1042C18.6667 21.0323 18.6952 20.9634 18.746 20.9127C18.7968 20.8619 18.8657 20.8333 18.9375 20.8333H20.8333C20.977 20.8333 21.1148 20.8904 21.2164 20.992C21.3179 21.0936 21.375 21.2313 21.375 21.375V31.125C21.375 31.2687 21.3179 31.4064 21.2164 31.508C21.1148 31.6096 20.977 31.6667 20.8333 31.6667H11.0833C10.796 31.6667 10.5205 31.7808 10.3173 31.984C10.1141 32.1871 10 32.4627 10 32.75V34.9167C10 35.204 10.1141 35.4795 10.3173 35.6827C10.5205 35.8859 10.796 36 11.0833 36H34.9167C35.204 36 35.4795 35.8859 35.6827 35.6827C35.8859 35.4795 36 35.204 36 34.9167V12.1667C36 11.592 35.7717 11.0409 35.3654 10.6346C34.9591 10.2283 34.408 10 33.8333 10ZM17.5833 15.9583C17.2619 15.9583 16.9478 15.863 16.6805 15.6845C16.4133 15.5059 16.205 15.2521 16.082 14.9552C15.959 14.6583 15.9269 14.3315 15.9896 14.0163C16.0523 13.7011 16.207 13.4115 16.4343 13.1843C16.6615 12.957 16.9511 12.8023 17.2663 12.7396C17.5815 12.6769 17.9083 12.709 18.2052 12.832C18.5021 12.955 18.7559 13.1633 18.9345 13.4305C19.113 13.6978 19.2083 14.0119 19.2083 14.3333C19.2083 14.7643 19.0371 15.1776 18.7324 15.4824C18.4276 15.7871 18.0143 15.9583 17.5833 15.9583ZM33.5625 20.0208H29.2292C29.0137 20.0208 28.807 19.9352 28.6546 19.7829C28.5023 19.6305 28.4167 19.4238 28.4167 19.2083C28.4167 18.9928 28.5023 18.7862 28.6546 18.6338C28.807 18.4814 29.0137 18.3958 29.2292 18.3958H33.5625C33.778 18.3958 33.9847 18.4814 34.137 18.6338C34.2894 18.7862 34.375 18.9928 34.375 19.2083C34.375 19.4238 34.2894 19.6305 34.137 19.7829C33.9847 19.9352 33.778 20.0208 33.5625 20.0208ZM33.5625 16.7708H29.2292C29.0137 16.7708 28.807 16.6852 28.6546 16.5329C28.5023 16.3805 28.4167 16.1738 28.4167 15.9583C28.4167 15.7428 28.5023 15.5362 28.6546 15.3838C28.807 15.2314 29.0137 15.1458 29.2292 15.1458H33.5625C33.778 15.1458 33.9847 15.2314 34.137 15.3838C34.2894 15.5362 34.375 15.7428 34.375 15.9583C34.375 16.1738 34.2894 16.3805 34.137 16.5329C33.9847 16.6852 33.778 16.7708 33.5625 16.7708Z" fill="#1A1512"/>
</svg>
