<svg width="64" height="64" viewBox="0 0 64 64" fill="none" xmlns="http://www.w3.org/2000/svg">
<circle cx="32" cy="32" r="32" fill="#FFF5E1"/>
<circle cx="32" cy="32" r="25" fill="#1A1512"/>
<path d="M21.2693 26.3331C22.5074 26.3331 23.6947 25.8356 24.5702 24.95C25.4456 24.0644 25.9375 22.8633 25.9375 21.6109C25.9375 20.3585 25.4456 19.1574 24.5702 18.2718C23.6947 17.3862 22.5074 16.8887 21.2693 16.8887C20.0313 16.8887 18.8439 17.3862 17.9685 18.2718C17.093 19.1574 16.6012 20.3585 16.6012 21.6109C16.6012 22.8633 17.093 24.0644 17.9685 24.95C18.8439 25.8356 20.0313 26.3331 21.2693 26.3331ZM42.7427 26.3331C43.9808 26.3331 45.1681 25.8356 46.0436 24.95C46.919 24.0644 47.4108 22.8633 47.4108 21.6109C47.4108 20.3585 46.919 19.1574 46.0436 18.2718C45.1681 17.3862 43.9808 16.8887 42.7427 16.8887C41.5046 16.8887 40.3173 17.3862 39.4418 18.2718C38.5664 19.1574 38.0746 20.3585 38.0746 21.6109C38.0746 22.8633 38.5664 24.0644 39.4418 24.95C40.3173 25.8356 41.5046 26.3331 42.7427 26.3331ZM12.8667 34.5203C12.8667 35.2109 13.4269 35.7776 14.1096 35.7776H26.5968C25.0447 34.3904 24.0702 32.3658 24.0702 30.1109C24.0702 29.6623 24.111 29.2255 24.1811 28.7946C23.3875 28.4227 22.5064 28.222 21.5786 28.222H19.087C15.6559 28.222 12.8667 31.0435 12.8667 34.5203ZM31.5392 35.7776C32.9396 35.7776 34.2175 35.2581 35.1978 34.4022C35.3437 34.1838 35.5013 33.9713 35.6647 33.7706C35.8222 33.5758 35.9973 33.4105 36.1898 33.2807C36.7908 32.3717 37.141 31.2855 37.141 30.1109C37.141 26.9824 34.6318 24.4442 31.5392 24.4442C28.4466 24.4442 25.9375 26.9824 25.9375 30.1109C25.9375 33.2394 28.4466 35.7776 31.5392 35.7776ZM35.3554 39.331C34.7544 38.9828 34.2992 38.3748 34.1417 37.6664H28.1198C23.8193 37.6664 20.3357 41.1904 20.3357 45.5349C20.3357 46.4026 21.0301 47.1109 21.8937 47.1109H39.4342C39.3116 46.8039 39.2474 46.4675 39.2474 46.1428V45.9658C39.1716 45.9244 39.0899 45.8772 39.014 45.83L38.8623 45.9185C37.882 46.4911 36.4991 46.3908 35.6705 45.346C35.4079 45.0154 35.1687 44.6671 34.9469 44.3071L34.9411 44.2953L34.9353 44.2835L34.7952 44.0414L34.7894 44.0296L34.7835 44.0178C34.5852 43.6519 34.4101 43.2741 34.2584 42.8786C33.7799 41.6272 34.3868 40.364 35.3671 39.7914L35.5246 39.7029V39.4314L35.3671 39.3428L35.3554 39.331ZM43.9856 28.222H41.494C40.5662 28.222 39.6851 28.4286 38.8915 28.7946C38.9674 29.2196 39.0024 29.6623 39.0024 30.1109C39.0024 31.138 38.7981 32.1119 38.4364 33.0033C38.5822 33.0564 38.7223 33.1213 38.8507 33.198L39.0024 33.2866C39.0782 33.2394 39.1541 33.1921 39.2358 33.1508V32.9737C39.2358 31.8286 40.0119 30.6658 41.3248 30.4592C41.7857 30.3883 42.2584 30.347 42.7369 30.347C43.2153 30.347 43.688 30.3824 44.149 30.4592C45.4619 30.6658 46.238 31.8286 46.238 32.9737V33.1508C46.3138 33.1921 46.3955 33.2394 46.4714 33.2866L46.6231 33.198C47.6034 32.6255 48.9863 32.7258 49.8149 33.7706C49.9491 33.9359 50.0775 34.113 50.2 34.2842C50.0775 30.9137 47.3408 28.222 43.9798 28.222H43.9856ZM49.3131 37.8967C49.6807 37.6842 49.8674 37.2414 49.7099 36.8342C49.5873 36.5095 49.4415 36.1967 49.2781 35.8956L49.1439 35.6595C48.963 35.3585 48.7646 35.0751 48.5487 34.8036C48.2803 34.4671 47.8076 34.4081 47.44 34.6265L47.2708 34.7269C46.7339 35.0397 46.0804 34.963 45.5436 34.6501C45.0067 34.3373 44.6041 33.7942 44.6041 33.1685V32.9678C44.6041 32.5369 44.3182 32.1533 43.8981 32.0883C43.5188 32.0293 43.1337 31.9998 42.7369 31.9998C42.3401 31.9998 41.955 32.0293 41.5757 32.0883C41.1555 32.1533 40.8696 32.5369 40.8696 32.9678V33.1685C40.8696 33.7942 40.467 34.3373 39.9302 34.6501C39.3933 34.963 38.7398 35.0397 38.203 34.7269L38.0337 34.6265C37.6661 34.414 37.1935 34.473 36.9251 34.8036C36.7092 35.0751 36.5108 35.3644 36.3299 35.6654L36.1957 35.8956C36.0323 36.1967 35.8864 36.5095 35.7639 36.8342C35.6121 37.2355 35.793 37.6783 36.1606 37.8908L36.3299 37.9911C36.8667 38.3039 37.1293 38.9237 37.1293 39.5494C37.1293 40.1751 36.8667 40.7949 36.3299 41.1078L36.1548 41.2081C35.7872 41.4206 35.6005 41.8633 35.758 42.2647C35.8806 42.5894 36.0264 42.8963 36.1898 43.1974L36.3299 43.4394C36.5049 43.7404 36.7033 44.0237 36.9192 44.2953C37.1876 44.6317 37.6603 44.6908 38.0279 44.4724L38.1971 44.372C38.7339 44.0592 39.3875 44.1359 39.9243 44.4487C40.4612 44.7616 40.8638 45.3046 40.8638 45.9303V46.131C40.8638 46.5619 41.1497 46.9456 41.5698 47.0105C41.9491 47.0696 42.3342 47.0991 42.731 47.0991C43.1278 47.0991 43.5129 47.0696 43.8922 47.0105C44.3124 46.9456 44.5983 46.5619 44.5983 46.131V45.9303C44.5983 45.3046 45.0009 44.7616 45.5377 44.4487C46.0746 44.1359 46.7281 44.0592 47.2649 44.372L47.4342 44.4724C47.8018 44.6849 48.2744 44.6258 48.5429 44.2953C48.7588 44.0237 48.9571 43.7404 49.1322 43.4394L49.2722 43.1915C49.4356 42.8904 49.5815 42.5835 49.704 42.2588C49.8558 41.8574 49.6749 41.4147 49.3073 41.2022L49.1322 41.1019C48.5954 40.789 48.3328 40.1692 48.3328 39.5435C48.3328 38.9178 48.5954 38.298 49.1322 37.9852L49.3073 37.8849L49.3131 37.8967ZM40.4086 39.5553C40.4086 38.9291 40.6545 38.3286 41.0923 37.8858C41.53 37.443 42.1237 37.1942 42.7427 37.1942C43.3617 37.1942 43.9554 37.443 44.3931 37.8858C44.8309 38.3286 45.0768 38.9291 45.0768 39.5553C45.0768 40.1815 44.8309 40.7821 44.3931 41.2249C43.9554 41.6677 43.3617 41.9164 42.7427 41.9164C42.1237 41.9164 41.53 41.6677 41.0923 41.2249C40.6545 40.7821 40.4086 40.1815 40.4086 39.5553Z" fill="#FFF5E1"/>
</svg>
