<svg width="46" height="46" viewBox="0 0 46 46" fill="none" xmlns="http://www.w3.org/2000/svg">
<circle cx="23" cy="23" r="23" fill="#FFF5E1"/>
<g clip-path="url(#clip0_1211_318)">
<path d="M25 17C25 18.5913 24.3679 20.1174 23.2426 21.2426C22.1174 22.3679 20.5913 23 19 23C17.4087 23 15.8826 22.3679 14.7574 21.2426C13.6321 20.1174 13 18.5913 13 17C13 15.4087 13.6321 13.8826 14.7574 12.7574C15.8826 11.6321 17.4087 11 19 11C20.5913 11 22.1174 11.6321 23.2426 12.7574C24.3679 13.8826 25 15.4087 25 17ZM7 33C7 35 9 35 9 35H29C29 35 31 35 31 33C31 31 29 25 19 25C9 25 7 31 7 33ZM34 16.82C36.774 13.97 43.71 18.96 34 25.374C24.292 18.96 31.226 13.968 34 16.82Z" fill="#1A1512"/>
</g>
<defs>
<clipPath id="clip0_1211_318">
<rect width="32" height="32" fill="white" transform="translate(7 7)"/>
</clipPath>
</defs>
</svg>
